<?xml version="1.0" encoding="UTF-8"?>
<svg id="Layer_1" data-name="Layer 1" xmlns="http://www.w3.org/2000/svg" viewBox="0 0 1376 280">
  <defs>
    <style>
      .cls-1 {
        fill: #1a1110;
      }

      .cls-2 {
        fill: #ff6b00;
      }
    </style>
  </defs>
  <path class="cls-2" d="M354.96,243.96c-1.09-.39-122.6-44.4-339.92,21.83,1.25-.65,65.03-33.59,145.46-47.41l-.98-118.92-33.27,14.56-5.2,38.46v-48.86l40.54-19.75,53.02,15.59v113.15c3.39-.12,6.8-.2,10.21-.23V32.92l-33.27,15.59-5.2,39.5.16-51.64,43.5-22.17,49.9,15.59,1.01,187.24c25.52,4.69,50.59,13.21,74.02,26.91Z"/>
  <g>
    <g>
      <path class="cls-1" d="M446.92,235.79c-10.07,0-18.01-2.1-23.83-6.29-5.82-4.2-9.95-10.1-12.41-17.71-2.46-7.61-3.69-16.39-3.69-26.34v-48.91c0-10.31,1.32-19.24,3.96-26.79,2.64-7.55,7.16-13.4,13.58-17.53,6.41-4.14,15.13-6.2,26.16-6.2s19.27,1.8,25.44,5.39c6.17,3.6,10.58,8.57,13.22,14.93,2.64,6.36,3.96,13.79,3.96,22.3v9.35h-31.47v-11.87c0-3.12-.21-5.99-.63-8.63-.42-2.64-1.38-4.76-2.88-6.38-1.5-1.62-3.93-2.43-7.28-2.43s-6,.93-7.55,2.79c-1.56,1.86-2.55,4.17-2.97,6.92-.42,2.76-.63,5.64-.63,8.63v67.43c0,3.24.33,6.27.99,9.08.66,2.82,1.86,5.1,3.6,6.83,1.74,1.74,4.23,2.61,7.46,2.61s5.93-.9,7.73-2.7,3.06-4.14,3.78-7.01c.72-2.88,1.08-5.93,1.08-9.17v-17.08h-13.13v-18.88h42.08v75.53h-21.22l-1.8-12.05c-1.92,4.08-4.74,7.46-8.45,10.16-3.72,2.7-8.75,4.05-15.11,4.05Z"/>
      <path class="cls-1" d="M513.63,233.64V87.98h40.1c9.83,0,18.34,1.08,25.53,3.24s12.8,6.02,16.81,11.6c4.01,5.57,6.02,13.46,6.02,23.65,0,6-.48,11.33-1.44,16-.96,4.68-2.73,8.72-5.3,12.14-2.58,3.42-6.27,6.27-11.06,8.54l19.96,70.49h-33.27l-16-65.28h-9.17v65.28h-32.19ZM545.82,149.84h8.99c4.56,0,8.09-.81,10.61-2.43,2.52-1.62,4.28-3.96,5.3-7.01,1.02-3.06,1.53-6.74,1.53-11.06,0-6.23-1.14-11.09-3.42-14.57-2.28-3.48-6.47-5.22-12.59-5.22h-10.43v40.28Z"/>
      <path class="cls-1" d="M662.53,235.79c-11.15,0-19.87-1.83-26.16-5.48-6.3-3.66-10.7-8.99-13.22-16-2.52-7.01-3.78-15.61-3.78-25.8v-100.52h31.83v105.38c0,3,.24,6,.72,8.99.48,3,1.53,5.46,3.15,7.37,1.62,1.92,4.11,2.88,7.46,2.88s5.99-.96,7.55-2.88c1.56-1.92,2.55-4.37,2.97-7.37.42-3,.63-5.99.63-8.99v-105.38h32.01v100.52c0,10.19-1.29,18.79-3.87,25.8-2.58,7.01-6.98,12.35-13.22,16-6.23,3.66-14.92,5.48-26.07,5.48Z"/>
      <path class="cls-1" d="M726.19,233.64V87.98h48.91c8.75,0,15.94,1.65,21.58,4.95,5.63,3.3,9.83,8.09,12.59,14.39,2.76,6.29,4.14,13.94,4.14,22.93,0,11.27-1.86,19.87-5.57,25.8-3.72,5.93-8.75,10.04-15.1,12.32-6.36,2.28-13.49,3.42-21.4,3.42h-12.95v61.86h-32.19ZM758.37,149.3h10.79c3.96,0,6.95-.72,8.99-2.16,2.04-1.44,3.38-3.6,4.04-6.47.66-2.88.99-6.53.99-10.97,0-3.71-.27-6.98-.81-9.8-.54-2.82-1.83-5.06-3.87-6.74-2.04-1.68-5.22-2.52-9.53-2.52h-10.61v38.66Z"/>
      <path class="cls-1" d="M870.59,235.79c-10.91,0-19.54-1.92-25.89-5.75-6.36-3.84-10.91-9.35-13.67-16.54-2.76-7.19-4.14-15.76-4.14-25.72v-54.13c0-10.07,1.38-18.64,4.14-25.72,2.76-7.07,7.31-12.5,13.67-16.27,6.35-3.78,14.98-5.66,25.89-5.66s19.75,1.89,26.16,5.66c6.41,3.78,11,9.2,13.76,16.27,2.76,7.08,4.14,15.64,4.14,25.72v54.13c0,9.95-1.38,18.52-4.14,25.72-2.76,7.19-7.34,12.71-13.76,16.54-6.41,3.84-15.14,5.75-26.16,5.75ZM870.59,212.96c3.35,0,5.81-.84,7.37-2.52,1.56-1.68,2.58-3.84,3.06-6.47.48-2.64.72-5.33.72-8.09v-70.13c0-2.88-.24-5.6-.72-8.18-.48-2.58-1.5-4.7-3.06-6.38-1.56-1.68-4.02-2.52-7.37-2.52-3.12,0-5.46.84-7.01,2.52-1.56,1.68-2.58,3.81-3.06,6.38-.48,2.58-.72,5.31-.72,8.18v70.13c0,2.76.21,5.46.63,8.09.42,2.64,1.38,4.8,2.88,6.47,1.5,1.68,3.93,2.52,7.28,2.52Z"/>
    </g>
    <g>
      <path class="cls-1" d="M921.62,233.64l30.57-145.66h11.33l30.75,145.66h-9.89l-7.55-40.28h-37.76l-7.73,40.28h-9.71ZM940.5,186.16h35.07l-17.62-86.32-17.44,86.32Z"/>
      <path class="cls-1" d="M1042.64,235.43c-7.67,0-14-1.56-18.97-4.68-4.98-3.12-8.75-7.49-11.33-13.13-2.58-5.63-4.17-12.29-4.77-19.96l8.45-2.7c.84,6.36,2.13,11.99,3.87,16.9,1.74,4.92,4.41,8.72,8,11.42,3.6,2.7,8.57,4.05,14.93,4.05,7.19,0,12.86-1.8,16.99-5.39,4.13-3.6,6.2-9.59,6.2-17.98,0-6.35-1.65-12.08-4.95-17.17-3.3-5.09-7.94-10.58-13.94-16.45l-26.61-26.43c-4.44-4.55-7.67-9.11-9.71-13.67-2.04-4.55-3.06-9.23-3.06-14.03,0-9.59,2.97-16.96,8.9-22.12,5.93-5.15,13.64-7.73,23.11-7.73,4.91,0,9.35.63,13.31,1.89,3.96,1.26,7.4,3.3,10.34,6.11,2.94,2.82,5.24,6.56,6.92,11.24,1.68,4.68,2.76,10.43,3.24,17.26l-8.27,1.98c-.48-6.83-1.62-12.53-3.42-17.08-1.8-4.55-4.44-7.94-7.91-10.16-3.48-2.22-8.15-3.33-14.03-3.33-6.59,0-12.11,1.68-16.54,5.04-4.44,3.36-6.65,8.75-6.65,16.18,0,3.72.75,7.31,2.25,10.79,1.5,3.48,4.29,7.25,8.36,11.33l26.25,25.89c5.87,5.75,10.94,11.9,15.2,18.43,4.25,6.54,6.38,13.7,6.38,21.49,0,7.31-1.38,13.34-4.14,18.07-2.76,4.74-6.59,8.24-11.51,10.52-4.92,2.28-10.55,3.42-16.9,3.42Z"/>
      <path class="cls-1" d="M1092.99,233.64l4.32-145.66h9.71l30.75,131.45,31.29-131.45h10.07l4.14,145.66h-8.45l-3.6-122.1-29.67,122.1h-7.19l-29.31-121.92-3.6,121.92h-8.45Z"/>
      <path class="cls-1" d="M1200.7,233.64l30.57-145.66h11.33l30.75,145.66h-9.89l-7.55-40.28h-37.76l-7.73,40.28h-9.71ZM1219.59,186.16h35.07l-17.62-86.32-17.44,86.32Z"/>
      <path class="cls-1" d="M1292.59,233.64V87.98h31.83c9.71,0,17.26,1.86,22.66,5.57,5.4,3.72,9.17,8.75,11.33,15.11,2.16,6.36,3.24,13.43,3.24,21.22v60.42c0,8.27-1.08,15.68-3.24,22.21-2.16,6.54-5.84,11.69-11.06,15.46-5.21,3.78-12.56,5.66-22.03,5.66h-32.73ZM1302.3,225.9h22.48c7.91,0,13.78-1.68,17.62-5.04,3.84-3.35,6.35-7.82,7.55-13.4,1.2-5.57,1.8-11.66,1.8-18.25v-58.62c0-7.07-.72-13.22-2.16-18.43-1.44-5.21-4.14-9.23-8.09-12.05-3.95-2.82-9.65-4.23-17.08-4.23h-22.12v130.01Z"/>
    </g>
  </g>
</svg>