<?xml version="1.0" encoding="UTF-8"?>
<svg id="Layer_1" data-name="Layer 1" xmlns="http://www.w3.org/2000/svg" viewBox="0 0 1200 280">
  <defs>
    <style>
      .cls-1 {
        fill: #1e1e1e;
      }

      .cls-2 {
        fill: #ff6a00;
      }
    </style>
  </defs>
  <g>
    <path class="cls-1" d="M414.2,215.29h-14.84c-7.38,0-13.07-1.96-17.08-5.88-4.01-3.92-6.02-9.57-6.02-16.94v-44.38c0-7.37,2.01-13.02,6.02-16.94,4.01-3.92,9.71-5.88,17.08-5.88h14.84c7.28,0,12.93,1.98,16.94,5.95,4.01,3.97,6.02,9.59,6.02,16.87v4.2c0,2.05-.98,3.08-2.94,3.08h-11.9c-1.96,0-2.94-1.03-2.94-3.08v-3.36c0-2.99-.61-5.11-1.82-6.37-1.21-1.26-3.31-1.89-6.3-1.89h-9.1c-2.89,0-4.97.63-6.23,1.89-1.26,1.26-1.89,3.38-1.89,6.37v42.7c0,2.99.63,5.11,1.89,6.37,1.26,1.26,3.34,1.89,6.23,1.89h9.1c2.99,0,5.09-.63,6.3-1.89,1.21-1.26,1.82-3.38,1.82-6.37v-8.82c0-1.03-.51-1.54-1.54-1.54h-8.4c-1.96,0-2.94-.98-2.94-2.94v-9.52c0-1.96.98-2.94,2.94-2.94h24.5c2.15,0,3.22,1.07,3.22,3.22v23.38c0,7.28-2.01,12.91-6.02,16.87-4.01,3.97-9.66,5.95-16.94,5.95Z"/>
    <path class="cls-1" d="M468.81,215.29h-11.9c-1.96,0-2.94-.98-2.94-2.94v-84.15c0-1.96.98-2.94,2.94-2.94h33.32c7.28,0,12.97,2.01,17.08,6.02,4.11,4.01,6.16,9.66,6.16,16.94v10.92c0,10.55-4.15,17.55-12.46,21v.56l14.98,31.22c.84,2.24.05,3.36-2.38,3.36h-11.34c-1.68,0-2.89-.19-3.64-.56-.75-.37-1.35-1.17-1.82-2.38l-14-30.24h-9.38c-1.12,0-1.68.51-1.68,1.54v28.7c0,1.96-.98,2.94-2.94,2.94ZM473.29,167.82h13.72c2.99,0,5.18-.63,6.58-1.89,1.4-1.26,2.1-3.29,2.1-6.09v-10.92c0-2.89-.7-4.99-2.1-6.3-1.4-1.31-3.59-1.96-6.58-1.96h-13.72c-1.03,0-1.54.51-1.54,1.54v24.08c0,1.03.51,1.54,1.54,1.54Z"/>
    <path class="cls-1" d="M576.62,125.26h11.76c2.05,0,3.08.93,3.08,2.8v64.41c0,7.28-2.03,12.91-6.09,16.87-4.06,3.97-9.73,5.95-17.01,5.95h-15.4c-7.37,0-13.07-1.96-17.08-5.88-4.01-3.92-6.02-9.57-6.02-16.94v-64.27c0-1.96.98-2.94,2.94-2.94h11.9c1.96,0,2.94.98,2.94,2.94v63.43c0,2.99.63,5.11,1.89,6.37,1.26,1.26,3.34,1.89,6.23,1.89h9.66c2.99,0,5.11-.63,6.37-1.89s1.89-3.38,1.89-6.37v-63.43c0-1.96.98-2.94,2.94-2.94Z"/>
    <path class="cls-1" d="M623.8,215.29h-11.9c-1.96,0-2.94-.98-2.94-2.94v-84.15c0-1.96.98-2.94,2.94-2.94h34.16c7.28,0,12.93,1.98,16.94,5.95,4.01,3.97,6.02,9.59,6.02,16.87v13.44c0,7.28-2.01,12.91-6.02,16.87-4.01,3.97-9.66,5.95-16.94,5.95h-17.64c-1.12,0-1.68.51-1.68,1.54v26.46c0,1.96-.98,2.94-2.94,2.94ZM628.28,168.8h14.84c2.99,0,5.09-.63,6.3-1.89,1.21-1.26,1.82-3.34,1.82-6.23v-11.76c0-2.99-.61-5.11-1.82-6.37-1.21-1.26-3.31-1.89-6.3-1.89h-14.84c-1.03,0-1.54.51-1.54,1.54v25.06c0,1.03.51,1.54,1.54,1.54Z"/>
    <path class="cls-1" d="M720.55,215.29h-15.68c-7.38,0-13.07-1.96-17.08-5.88-4.01-3.92-6.02-9.57-6.02-16.94v-44.38c0-7.37,2.01-13.02,6.02-16.94,4.01-3.92,9.71-5.88,17.08-5.88h15.68c7.37,0,13.07,1.96,17.08,5.88,4.01,3.92,6.02,9.57,6.02,16.94v44.38c0,7.37-2.01,13.02-6.02,16.94-4.01,3.92-9.71,5.88-17.08,5.88ZM707.67,199.89h9.94c2.99,0,5.11-.63,6.37-1.89,1.26-1.26,1.89-3.38,1.89-6.37v-42.7c0-2.99-.63-5.11-1.89-6.37s-3.38-1.89-6.37-1.89h-9.94c-2.99,0-5.09.63-6.3,1.89-1.21,1.26-1.82,3.38-1.82,6.37v42.7c0,2.99.61,5.11,1.82,6.37,1.21,1.26,3.31,1.89,6.3,1.89Z"/>
    <path class="cls-1" d="M800.63,215.29h-13.44c-1.68,0-2.24-.98-1.68-2.94l22.12-84.15c.65-1.96,2.05-2.94,4.2-2.94h18.62c2.33,0,3.73.98,4.2,2.94l22.12,84.15c.56,1.96,0,2.94-1.68,2.94h-13.44c-1.03,0-1.73-.21-2.1-.63-.37-.42-.65-1.19-.84-2.31l-3.92-15.4h-27.3l-3.92,15.4c-.19,1.12-.49,1.89-.91,2.31-.42.42-1.1.63-2.03.63ZM820.93,142.2l-10.08,40.46h20.72l-10.08-40.46h-.56Z"/>
    <path class="cls-1" d="M867,192.32v-2.8c0-1.96.98-2.94,2.94-2.94h11.9c1.96,0,2.94.98,2.94,2.94v1.12c0,3.55.7,5.97,2.1,7.28,1.4,1.31,3.97,1.96,7.7,1.96h6.58c3.64,0,6.18-.7,7.63-2.1,1.45-1.4,2.17-4.01,2.17-7.84v-1.68c0-2.71-1.1-4.78-3.29-6.23-2.19-1.45-4.92-2.31-8.19-2.59-3.27-.28-6.79-.82-10.57-1.61-3.78-.79-7.3-1.82-10.57-3.08-3.27-1.26-6-3.73-8.19-7.42-2.19-3.69-3.29-8.42-3.29-14.21v-4.9c0-7.28,2.05-12.93,6.16-16.94,4.11-4.01,9.8-6.02,17.08-6.02h14c7.37,0,13.11,2.01,17.22,6.02,4.11,4.01,6.16,9.66,6.16,16.94v2.66c0,1.96-.98,2.94-2.94,2.94h-11.9c-1.96,0-2.94-.98-2.94-2.94v-.84c0-3.64-.7-6.11-2.1-7.42-1.4-1.31-3.97-1.96-7.7-1.96h-5.46c-3.83,0-6.42.72-7.77,2.17-1.35,1.45-2.03,4.27-2.03,8.47v2.66c0,4.39,3.83,6.91,11.48,7.56,7.93.65,14.98,2.24,21.14,4.76,3.27,1.4,6,3.9,8.19,7.49,2.19,3.59,3.29,8.19,3.29,13.79v4.76c0,7.28-2.05,12.93-6.16,16.94-4.11,4.01-9.8,6.02-17.08,6.02h-15.26c-7.28,0-12.98-2.01-17.08-6.02-4.11-4.01-6.16-9.66-6.16-16.94Z"/>
    <path class="cls-1" d="M1004.49,125.26h20.72c1.96,0,2.94.98,2.94,2.94v84.15c0,1.96-.98,2.94-2.94,2.94h-11.48c-1.96,0-2.94-.98-2.94-2.94v-66.37h-.56l-14.28,46.9c-.56,1.87-1.73,2.8-3.5,2.8h-11.76c-1.77,0-2.94-.93-3.5-2.8l-14.56-47.04h-.56v66.51c0,1.12-.19,1.89-.56,2.31-.37.42-1.17.63-2.38.63h-11.48c-1.96,0-2.94-.98-2.94-2.94v-84.15c0-1.96.98-2.94,2.94-2.94h20.86c1.31,0,2.19.65,2.66,1.96l14.84,49.42h.84l14.98-49.42c.28-1.31,1.17-1.96,2.66-1.96Z"/>
    <path class="cls-1" d="M1055.73,215.29h-13.44c-1.68,0-2.24-.98-1.68-2.94l22.12-84.15c.65-1.96,2.05-2.94,4.2-2.94h18.62c2.33,0,3.73.98,4.2,2.94l22.12,84.15c.56,1.96,0,2.94-1.68,2.94h-13.44c-1.03,0-1.73-.21-2.1-.63-.37-.42-.65-1.19-.84-2.31l-3.92-15.4h-27.3l-3.92,15.4c-.19,1.12-.49,1.89-.91,2.31-.42.42-1.1.63-2.03.63ZM1076.03,142.2l-10.08,40.46h20.72l-10.08-40.46h-.56Z"/>
    <path class="cls-1" d="M1124.34,212.35v-84.15c0-1.96.98-2.94,2.94-2.94h34.58c7.28,0,12.95,1.98,17.01,5.95,4.06,3.97,6.09,9.59,6.09,16.87v44.38c0,7.28-2.03,12.91-6.09,16.87-4.06,3.97-9.73,5.95-17.01,5.95h-34.58c-1.96,0-2.94-.98-2.94-2.94ZM1143.66,199.89h15.26c2.99,0,5.11-.63,6.37-1.89s1.89-3.38,1.89-6.37v-42.7c0-2.99-.63-5.11-1.89-6.37-1.26-1.26-3.38-1.89-6.37-1.89h-15.26c-1.03,0-1.54.51-1.54,1.54v56.14c0,1.03.51,1.54,1.54,1.54Z"/>
  </g>
  <path class="cls-2" d="M354.96,243.96c-1.09-.39-122.6-44.4-339.92,21.83,1.25-.65,65.03-33.59,145.46-47.41l-.98-118.92-33.27,14.56-5.2,38.46v-48.86l40.54-19.75,53.02,15.59v113.15c3.39-.12,6.8-.2,10.21-.23V32.92l-33.27,15.59-5.2,39.5.16-51.64,43.5-22.17,49.9,15.59,1.01,187.24c25.52,4.69,50.59,13.21,74.02,26.91Z"/>
</svg>