<?xml version="1.0" encoding="UTF-8"?>
<svg id="Layer_1" data-name="Layer 1" xmlns="http://www.w3.org/2000/svg" viewBox="0 0 800 468">
  <defs>
    <style>
      .cls-1 {
        fill: #1e1e1e;
      }

      .cls-2 {
        fill: #ff6a00;
      }
    </style>
  </defs>
  <g>
    <path class="cls-1" d="M48.86,451.42h-14.22c-7.07,0-12.52-1.88-16.37-5.64-3.85-3.76-5.77-9.17-5.77-16.24v-42.53c0-7.07,1.92-12.48,5.77-16.24,3.84-3.76,9.3-5.64,16.37-5.64h14.22c6.98,0,12.39,1.9,16.24,5.7,3.85,3.8,5.77,9.19,5.77,16.17v4.03c0,1.97-.94,2.95-2.82,2.95h-11.41c-1.88,0-2.82-.98-2.82-2.95v-3.22c0-2.86-.58-4.9-1.74-6.11-1.16-1.21-3.18-1.81-6.04-1.81h-8.72c-2.77,0-4.76.6-5.97,1.81-1.21,1.21-1.81,3.24-1.81,6.11v40.92c0,2.86.6,4.9,1.81,6.1,1.21,1.21,3.2,1.81,5.97,1.81h8.72c2.86,0,4.87-.6,6.04-1.81,1.16-1.21,1.74-3.24,1.74-6.1v-8.45c0-.98-.49-1.48-1.48-1.48h-8.05c-1.88,0-2.82-.94-2.82-2.82v-9.12c0-1.88.94-2.82,2.82-2.82h23.48c2.06,0,3.09,1.03,3.09,3.09v22.41c0,6.98-1.92,12.37-5.77,16.17-3.85,3.8-9.26,5.7-16.24,5.7Z"/>
    <path class="cls-1" d="M101.19,451.42h-11.4c-1.88,0-2.82-.94-2.82-2.82v-80.64c0-1.88.94-2.82,2.82-2.82h31.93c6.98,0,12.43,1.92,16.37,5.77,3.94,3.85,5.9,9.26,5.9,16.24v10.47c0,10.11-3.98,16.82-11.94,20.13v.54l14.36,29.92c.81,2.15.04,3.22-2.28,3.22h-10.87c-1.61,0-2.77-.18-3.49-.54-.72-.36-1.3-1.12-1.74-2.28l-13.42-28.98h-8.99c-1.07,0-1.61.49-1.61,1.48v27.51c0,1.88-.94,2.82-2.82,2.82ZM105.49,405.94h13.15c2.86,0,4.96-.6,6.31-1.81,1.34-1.21,2.01-3.15,2.01-5.84v-10.47c0-2.77-.67-4.78-2.01-6.04-1.34-1.25-3.44-1.88-6.31-1.88h-13.15c-.99,0-1.48.49-1.48,1.48v23.08c0,.99.49,1.48,1.48,1.48Z"/>
    <path class="cls-1" d="M204.51,365.15h11.27c1.97,0,2.95.9,2.95,2.68v61.72c0,6.98-1.95,12.37-5.84,16.17-3.89,3.8-9.33,5.7-16.3,5.7h-14.76c-7.07,0-12.52-1.88-16.37-5.64-3.85-3.76-5.77-9.17-5.77-16.24v-61.59c0-1.88.94-2.82,2.82-2.82h11.41c1.88,0,2.82.94,2.82,2.82v60.78c0,2.86.6,4.9,1.81,6.1,1.21,1.21,3.2,1.81,5.97,1.81h9.26c2.86,0,4.9-.6,6.11-1.81s1.81-3.24,1.81-6.1v-60.78c0-1.88.94-2.82,2.82-2.82Z"/>
    <path class="cls-1" d="M249.72,451.42h-11.4c-1.88,0-2.82-.94-2.82-2.82v-80.64c0-1.88.94-2.82,2.82-2.82h32.74c6.98,0,12.39,1.9,16.24,5.7,3.85,3.8,5.77,9.19,5.77,16.17v12.88c0,6.98-1.92,12.37-5.77,16.17-3.85,3.8-9.26,5.7-16.24,5.7h-16.91c-1.07,0-1.61.49-1.61,1.48v25.36c0,1.88-.94,2.82-2.82,2.82ZM254.02,406.87h14.22c2.86,0,4.87-.6,6.04-1.81,1.16-1.21,1.74-3.2,1.74-5.97v-11.27c0-2.86-.58-4.9-1.74-6.11-1.16-1.21-3.18-1.81-6.04-1.81h-14.22c-.99,0-1.48.49-1.48,1.48v24.02c0,.99.49,1.48,1.48,1.48Z"/>
    <path class="cls-1" d="M342.44,451.42h-15.03c-7.07,0-12.52-1.88-16.37-5.64-3.85-3.76-5.77-9.17-5.77-16.24v-42.53c0-7.07,1.92-12.48,5.77-16.24,3.84-3.76,9.3-5.64,16.37-5.64h15.03c7.07,0,12.52,1.88,16.37,5.64,3.84,3.76,5.77,9.17,5.77,16.24v42.53c0,7.07-1.92,12.48-5.77,16.24-3.85,3.76-9.3,5.64-16.37,5.64ZM330.1,436.66h9.53c2.86,0,4.9-.6,6.1-1.81,1.21-1.21,1.81-3.24,1.81-6.1v-40.92c0-2.86-.6-4.9-1.81-6.11s-3.24-1.81-6.1-1.81h-9.53c-2.86,0-4.88.6-6.04,1.81-1.16,1.21-1.74,3.24-1.74,6.11v40.92c0,2.86.58,4.9,1.74,6.1,1.16,1.21,3.17,1.81,6.04,1.81Z"/>
    <path class="cls-1" d="M419.19,451.42h-12.88c-1.61,0-2.15-.94-1.61-2.82l21.2-80.64c.62-1.88,1.97-2.82,4.03-2.82h17.85c2.23,0,3.58.94,4.03,2.82l21.2,80.64c.54,1.88,0,2.82-1.61,2.82h-12.88c-.99,0-1.66-.2-2.01-.6-.36-.4-.63-1.14-.81-2.21l-3.76-14.76h-26.16l-3.76,14.76c-.18,1.07-.47,1.81-.87,2.21-.4.4-1.05.6-1.95.6ZM438.64,381.38l-9.66,38.78h19.86l-9.66-38.78h-.54Z"/>
    <path class="cls-1" d="M482.79,429.42v-2.68c0-1.88.94-2.82,2.82-2.82h11.41c1.88,0,2.82.94,2.82,2.82v1.07c0,3.4.67,5.73,2.01,6.98,1.34,1.25,3.8,1.88,7.38,1.88h6.31c3.49,0,5.92-.67,7.31-2.01,1.39-1.34,2.08-3.84,2.08-7.51v-1.61c0-2.59-1.05-4.58-3.15-5.97-2.1-1.39-4.72-2.21-7.85-2.48-3.13-.27-6.51-.78-10.13-1.54-3.62-.76-7-1.74-10.13-2.95-3.13-1.21-5.75-3.58-7.85-7.11-2.1-3.53-3.15-8.07-3.15-13.62v-4.7c0-6.98,1.97-12.39,5.9-16.24,3.94-3.85,9.39-5.77,16.37-5.77h13.42c7.07,0,12.57,1.92,16.5,5.77,3.94,3.85,5.9,9.26,5.9,16.24v2.55c0,1.88-.94,2.82-2.82,2.82h-11.41c-1.88,0-2.82-.94-2.82-2.82v-.81c0-3.49-.67-5.86-2.01-7.11-1.34-1.25-3.8-1.88-7.38-1.88h-5.23c-3.67,0-6.15.69-7.45,2.08-1.3,1.39-1.95,4.09-1.95,8.12v2.55c0,4.21,3.67,6.62,11,7.25,7.6.63,14.36,2.15,20.26,4.56,3.13,1.34,5.75,3.74,7.85,7.18,2.1,3.44,3.15,7.85,3.15,13.22v4.56c0,6.98-1.97,12.39-5.9,16.24-3.94,3.85-9.39,5.77-16.37,5.77h-14.63c-6.98,0-12.43-1.92-16.37-5.77-3.94-3.85-5.9-9.26-5.9-16.24Z"/>
    <path class="cls-1" d="M614.55,365.15h19.86c1.88,0,2.82.94,2.82,2.82v80.64c0,1.88-.94,2.82-2.82,2.82h-11c-1.88,0-2.82-.94-2.82-2.82v-63.6h-.54l-13.69,44.95c-.54,1.79-1.66,2.68-3.35,2.68h-11.27c-1.7,0-2.82-.89-3.35-2.68l-13.95-45.08h-.54v63.73c0,1.07-.18,1.81-.54,2.21-.36.4-1.12.6-2.28.6h-11c-1.88,0-2.82-.94-2.82-2.82v-80.64c0-1.88.94-2.82,2.82-2.82h19.99c1.25,0,2.1.63,2.55,1.88l14.22,47.36h.81l14.36-47.36c.27-1.25,1.12-1.88,2.55-1.88Z"/>
    <path class="cls-1" d="M663.66,451.42h-12.88c-1.61,0-2.15-.94-1.61-2.82l21.2-80.64c.62-1.88,1.97-2.82,4.03-2.82h17.85c2.23,0,3.58.94,4.03,2.82l21.2,80.64c.54,1.88,0,2.82-1.61,2.82h-12.88c-.99,0-1.66-.2-2.01-.6-.36-.4-.63-1.14-.8-2.21l-3.76-14.76h-26.16l-3.76,14.76c-.18,1.07-.47,1.81-.87,2.21-.4.4-1.05.6-1.95.6ZM683.11,381.38l-9.66,38.78h19.86l-9.66-38.78h-.54Z"/>
    <path class="cls-1" d="M729.4,448.6v-80.64c0-1.88.94-2.82,2.82-2.82h33.14c6.98,0,12.41,1.9,16.3,5.7,3.89,3.8,5.84,9.19,5.84,16.17v42.53c0,6.98-1.95,12.37-5.84,16.17-3.89,3.8-9.32,5.7-16.3,5.7h-33.14c-1.88,0-2.82-.94-2.82-2.82ZM747.92,436.66h14.63c2.86,0,4.9-.6,6.1-1.81s1.81-3.24,1.81-6.1v-40.92c0-2.86-.6-4.9-1.81-6.11-1.21-1.21-3.24-1.81-6.1-1.81h-14.63c-.99,0-1.48.49-1.48,1.48v53.8c0,.99.49,1.48,1.48,1.48Z"/>
  </g>
  <path class="cls-2" d="M603.88,292.18c-1.3-.47-147.07-53.26-407.77,26.19,1.5-.78,78.01-40.3,174.49-56.87l-1.17-142.65-39.91,17.46-6.23,46.14v-58.61l48.64-23.69,63.6,18.71v135.73c4.07-.15,8.16-.24,12.25-.27V39.02l-39.91,18.71-6.24,47.39.2-61.95,52.19-26.59,59.86,18.7,1.21,224.61c30.61,5.62,60.69,15.85,88.79,32.28Z"/>
</svg>