<?xml version="1.0" encoding="UTF-8"?>
<svg id="Layer_1" data-name="Layer 1" xmlns="http://www.w3.org/2000/svg" viewBox="0 0 1641 280">
  <defs>
    <style>
      .cls-1 {
        fill: #1a1110;
      }

      .cls-2 {
        fill: #ff6b00;
      }
    </style>
  </defs>
  <path class="cls-2" d="M354.96,243.96c-1.09-.39-122.6-44.4-339.92,21.83,1.25-.65,65.03-33.59,145.46-47.41l-.98-118.92-33.27,14.56-5.2,38.46v-48.86l40.54-19.75,53.02,15.59v113.15c3.39-.12,6.8-.2,10.21-.23V32.92l-33.27,15.59-5.2,39.5.16-51.64,43.5-22.17,49.9,15.59,1.01,187.24c25.52,4.69,50.59,13.21,74.02,26.91Z"/>
  <g>
    <g>
      <path class="cls-1" d="M456.06,235.79c-12.88,0-23.04-2.68-30.47-8.05-7.44-5.37-12.73-12.92-15.87-22.65-3.14-9.74-4.71-20.97-4.71-33.7v-62.56c0-13.19,1.69-24.61,5.06-34.27,3.37-9.66,9.16-17.14,17.36-22.43,8.2-5.29,19.36-7.93,33.46-7.93s24.65,2.3,32.54,6.9c7.9,4.6,13.53,10.96,16.91,19.09,3.37,8.13,5.06,17.63,5.06,28.52v11.96h-40.25v-15.18c0-3.99-.27-7.67-.81-11.04-.54-3.37-1.76-6.09-3.68-8.17-1.92-2.07-5.02-3.1-9.31-3.1s-7.67,1.19-9.66,3.57c-1.99,2.38-3.26,5.33-3.79,8.86-.54,3.53-.81,7.21-.81,11.04v86.25c0,4.14.42,8.01,1.26,11.62.84,3.6,2.38,6.52,4.6,8.74,2.22,2.22,5.41,3.33,9.55,3.33s7.59-1.15,9.89-3.45,3.91-5.29,4.83-8.97c.92-3.68,1.38-7.59,1.38-11.73v-21.85h-16.79v-24.15h53.82v96.6h-27.14l-2.3-15.41c-2.45,5.21-6.06,9.55-10.81,12.99-4.75,3.45-11.19,5.18-19.32,5.18Z"/>
      <path class="cls-1" d="M541.39,233.03V46.74h51.29c12.57,0,23.46,1.38,32.66,4.14s16.37,7.7,21.51,14.83c5.13,7.13,7.7,17.21,7.7,30.24,0,7.67-.61,14.49-1.84,20.47-1.23,5.98-3.49,11.15-6.78,15.52-3.3,4.37-8.01,8.01-14.15,10.93l25.53,90.16h-42.55l-20.47-83.49h-11.73v83.49h-41.17ZM582.56,125.85h11.5c5.83,0,10.35-1.03,13.57-3.1,3.22-2.07,5.48-5.06,6.78-8.97,1.3-3.91,1.96-8.62,1.96-14.14,0-7.97-1.46-14.18-4.37-18.63-2.91-4.45-8.28-6.67-16.1-6.67h-13.34v51.52Z"/>
      <path class="cls-1" d="M731.82,235.79c-14.26,0-25.41-2.34-33.46-7.02-8.05-4.68-13.69-11.5-16.91-20.47-3.22-8.97-4.83-19.97-4.83-33V46.74h40.71v134.78c0,3.83.31,7.67.92,11.5.61,3.84,1.95,6.98,4.03,9.43,2.07,2.45,5.25,3.68,9.54,3.68s7.67-1.23,9.66-3.68c1.99-2.45,3.26-5.6,3.79-9.43.54-3.83.81-7.67.81-11.5V46.74h40.94v128.57c0,13.03-1.65,24.03-4.95,33-3.3,8.97-8.93,15.79-16.9,20.47s-19.09,7.02-33.35,7.02Z"/>
      <path class="cls-1" d="M813.24,233.03V46.74h62.56c11.19,0,20.39,2.11,27.6,6.33,7.2,4.22,12.57,10.35,16.1,18.4,3.53,8.05,5.29,17.83,5.29,29.32,0,14.41-2.38,25.42-7.13,33-4.75,7.59-11.19,12.84-19.32,15.75-8.13,2.91-17.25,4.37-27.37,4.37h-16.56v79.12h-41.17ZM854.41,125.17h13.8c5.06,0,8.89-.92,11.5-2.76,2.61-1.84,4.33-4.6,5.17-8.28.84-3.68,1.27-8.36,1.27-14.03,0-4.75-.34-8.93-1.03-12.53-.69-3.6-2.34-6.48-4.95-8.63-2.61-2.15-6.67-3.22-12.19-3.22h-13.57v49.45Z"/>
      <path class="cls-1" d="M997.93,235.79c-13.96,0-25-2.45-33.12-7.36-8.13-4.91-13.96-11.96-17.48-21.16-3.53-9.2-5.29-20.16-5.29-32.89v-69.23c0-12.88,1.76-23.84,5.29-32.89,3.52-9.05,9.35-15.98,17.48-20.82,8.12-4.83,19.16-7.24,33.12-7.24s25.26,2.41,33.46,7.24c8.2,4.83,14.06,11.77,17.59,20.82,3.53,9.05,5.29,20.01,5.29,32.89v69.23c0,12.73-1.76,23.69-5.29,32.89-3.53,9.2-9.39,16.25-17.59,21.16-8.2,4.91-19.36,7.36-33.46,7.36ZM997.93,206.58c4.29,0,7.43-1.07,9.43-3.22,1.99-2.15,3.29-4.91,3.91-8.28.61-3.37.92-6.82.92-10.35v-89.7c0-3.68-.31-7.17-.92-10.47-.61-3.29-1.92-6.02-3.91-8.16-2-2.15-5.14-3.22-9.43-3.22-3.99,0-6.98,1.07-8.97,3.22-2,2.15-3.3,4.87-3.91,8.16-.61,3.3-.92,6.79-.92,10.47v89.7c0,3.53.27,6.98.8,10.35.54,3.37,1.76,6.13,3.68,8.28,1.92,2.15,5.02,3.22,9.32,3.22Z"/>
    </g>
    <g>
      <path class="cls-1" d="M1063.21,233.03l39.1-186.3h14.49l39.33,186.3h-12.65l-9.66-51.52h-48.3l-9.89,51.52h-12.42ZM1087.36,172.31h44.85l-22.54-110.4-22.31,110.4Z"/>
      <path class="cls-1" d="M1217.99,235.33c-9.81,0-17.9-2-24.27-5.98-6.36-3.99-11.19-9.58-14.49-16.79-3.3-7.21-5.33-15.72-6.1-25.53l10.81-3.45c1.07,8.13,2.72,15.33,4.95,21.62,2.22,6.29,5.63,11.15,10.23,14.61,4.6,3.45,10.96,5.17,19.09,5.17,9.2,0,16.44-2.3,21.74-6.9,5.29-4.6,7.93-12.27,7.93-23,0-8.13-2.11-15.45-6.33-21.96-4.22-6.52-10.16-13.53-17.82-21.04l-34.04-33.81c-5.67-5.83-9.81-11.65-12.42-17.48-2.61-5.83-3.91-11.81-3.91-17.94,0-12.27,3.79-21.7,11.39-28.29,7.59-6.59,17.44-9.89,29.55-9.89,6.29,0,11.96.81,17.02,2.42,5.06,1.61,9.47,4.22,13.22,7.82,3.76,3.6,6.71,8.39,8.86,14.38,2.15,5.98,3.52,13.34,4.14,22.08l-10.58,2.53c-.61-8.74-2.07-16.02-4.37-21.85-2.3-5.83-5.68-10.16-10.12-12.99-4.45-2.84-10.43-4.26-17.94-4.26-8.43,0-15.49,2.15-21.16,6.44-5.67,4.29-8.51,11.19-8.51,20.7,0,4.75.95,9.35,2.87,13.8,1.92,4.45,5.48,9.28,10.7,14.49l33.58,33.12c7.51,7.36,13.99,15.22,19.44,23.58,5.44,8.36,8.16,17.52,8.16,27.48,0,9.35-1.76,17.06-5.29,23.11-3.53,6.06-8.43,10.54-14.72,13.46-6.29,2.91-13.49,4.37-21.62,4.37Z"/>
      <path class="cls-1" d="M1282.39,233.03l5.52-186.3h12.42l39.33,168.13,40.02-168.13h12.88l5.29,186.3h-10.81l-4.6-156.17-37.95,156.17h-9.2l-37.49-155.94-4.6,155.94h-10.81Z"/>
      <path class="cls-1" d="M1420.16,233.03l39.1-186.3h14.49l39.33,186.3h-12.65l-9.66-51.52h-48.3l-9.89,51.52h-12.42ZM1444.31,172.31h44.85l-22.54-110.4-22.31,110.4Z"/>
      <path class="cls-1" d="M1537.68,233.03V46.74h40.71c12.42,0,22.08,2.38,28.98,7.13,6.9,4.75,11.73,11.19,14.49,19.32,2.76,8.13,4.14,17.17,4.14,27.14v77.28c0,10.58-1.38,20.05-4.14,28.4-2.76,8.36-7.47,14.95-14.15,19.78-6.67,4.83-16.06,7.25-28.17,7.25h-41.86ZM1550.1,223.14h28.75c10.12,0,17.63-2.15,22.54-6.44,4.91-4.29,8.13-10.01,9.66-17.13,1.53-7.13,2.3-14.91,2.3-23.35v-74.98c0-9.05-.92-16.91-2.76-23.58-1.84-6.67-5.29-11.81-10.35-15.41-5.06-3.6-12.34-5.41-21.85-5.41h-28.29v166.29Z"/>
    </g>
  </g>
</svg>